<mxfile host="app.diagrams.net" modified="2023-02-22T08:06:31.932Z" agent="5.0 (Windows NT 10.0; Win64; x64) AppleWebKit/537.36 (KHTML, like Gecko) Chrome/110.0.0.0 Safari/537.36" etag="YZnDTbrxlWSaCIwMboKM" version="20.8.22" type="github">
  <diagram id="R2lEEEUBdFMjLlhIrx00" name="Page-1">
    <mxGraphModel dx="1050" dy="549" grid="1" gridSize="10" guides="1" tooltips="1" connect="1" arrows="1" fold="1" page="1" pageScale="1" pageWidth="850" pageHeight="1100" math="0" shadow="0" extFonts="Permanent Marker^https://fonts.googleapis.com/css?family=Permanent+Marker">
      <root>
        <mxCell id="0" />
        <mxCell id="1" parent="0" />
        <mxCell id="5PubQIWTH5NYxzCgbzbN-1" value="회원" style="rounded=0;whiteSpace=wrap;html=1;" vertex="1" parent="1">
          <mxGeometry x="365" y="130" width="120" height="60" as="geometry" />
        </mxCell>
        <mxCell id="5PubQIWTH5NYxzCgbzbN-20" style="edgeStyle=orthogonalEdgeStyle;rounded=0;orthogonalLoop=1;jettySize=auto;html=1;entryX=0.5;entryY=1;entryDx=0;entryDy=0;strokeColor=default;endArrow=none;endFill=0;startArrow=ERzeroToMany;startFill=0;" edge="1" parent="1" source="5PubQIWTH5NYxzCgbzbN-2" target="5PubQIWTH5NYxzCgbzbN-18">
          <mxGeometry relative="1" as="geometry" />
        </mxCell>
        <mxCell id="5PubQIWTH5NYxzCgbzbN-2" value="아파트" style="rounded=0;whiteSpace=wrap;html=1;" vertex="1" parent="1">
          <mxGeometry x="160" y="320" width="120" height="60" as="geometry" />
        </mxCell>
        <mxCell id="5PubQIWTH5NYxzCgbzbN-3" value="가격정보" style="rounded=0;whiteSpace=wrap;html=1;" vertex="1" parent="1">
          <mxGeometry x="560" y="320" width="120" height="60" as="geometry" />
        </mxCell>
        <mxCell id="5PubQIWTH5NYxzCgbzbN-5" style="edgeStyle=orthogonalEdgeStyle;rounded=0;orthogonalLoop=1;jettySize=auto;html=1;exitX=0.5;exitY=1;exitDx=0;exitDy=0;entryX=0.5;entryY=0;entryDx=0;entryDy=0;endArrow=none;endFill=0;strokeColor=default;" edge="1" parent="1" source="5PubQIWTH5NYxzCgbzbN-4" target="5PubQIWTH5NYxzCgbzbN-1">
          <mxGeometry relative="1" as="geometry" />
        </mxCell>
        <mxCell id="5PubQIWTH5NYxzCgbzbN-4" value="&lt;u&gt;이메일(구글연동)&lt;/u&gt;" style="ellipse;whiteSpace=wrap;html=1;rounded=0;" vertex="1" parent="1">
          <mxGeometry x="370" y="30" width="110" height="80" as="geometry" />
        </mxCell>
        <mxCell id="5PubQIWTH5NYxzCgbzbN-9" style="edgeStyle=orthogonalEdgeStyle;rounded=0;orthogonalLoop=1;jettySize=auto;html=1;entryX=1;entryY=0.5;entryDx=0;entryDy=0;strokeColor=default;endArrow=none;endFill=0;" edge="1" parent="1" source="5PubQIWTH5NYxzCgbzbN-8" target="5PubQIWTH5NYxzCgbzbN-1">
          <mxGeometry relative="1" as="geometry" />
        </mxCell>
        <mxCell id="5PubQIWTH5NYxzCgbzbN-8" value="가입일" style="ellipse;whiteSpace=wrap;html=1;rounded=0;" vertex="1" parent="1">
          <mxGeometry x="520" y="60" width="110" height="80" as="geometry" />
        </mxCell>
        <mxCell id="5PubQIWTH5NYxzCgbzbN-11" style="edgeStyle=orthogonalEdgeStyle;rounded=0;orthogonalLoop=1;jettySize=auto;html=1;exitX=0.5;exitY=0;exitDx=0;exitDy=0;entryX=0.5;entryY=1;entryDx=0;entryDy=0;strokeColor=default;endArrow=none;endFill=0;" edge="1" parent="1" source="5PubQIWTH5NYxzCgbzbN-10" target="5PubQIWTH5NYxzCgbzbN-2">
          <mxGeometry relative="1" as="geometry" />
        </mxCell>
        <mxCell id="5PubQIWTH5NYxzCgbzbN-10" value="&lt;u&gt;아파트명&lt;/u&gt;" style="ellipse;whiteSpace=wrap;html=1;rounded=0;" vertex="1" parent="1">
          <mxGeometry x="165" y="430" width="110" height="80" as="geometry" />
        </mxCell>
        <mxCell id="5PubQIWTH5NYxzCgbzbN-15" style="edgeStyle=orthogonalEdgeStyle;rounded=0;orthogonalLoop=1;jettySize=auto;html=1;entryX=0.25;entryY=1;entryDx=0;entryDy=0;strokeColor=default;endArrow=none;endFill=0;" edge="1" parent="1" source="5PubQIWTH5NYxzCgbzbN-12" target="5PubQIWTH5NYxzCgbzbN-3">
          <mxGeometry relative="1" as="geometry" />
        </mxCell>
        <mxCell id="5PubQIWTH5NYxzCgbzbN-12" value="일자" style="ellipse;whiteSpace=wrap;html=1;rounded=0;" vertex="1" parent="1">
          <mxGeometry x="460" y="430" width="110" height="80" as="geometry" />
        </mxCell>
        <mxCell id="5PubQIWTH5NYxzCgbzbN-16" style="edgeStyle=orthogonalEdgeStyle;rounded=0;orthogonalLoop=1;jettySize=auto;html=1;entryX=0.45;entryY=1.057;entryDx=0;entryDy=0;entryPerimeter=0;strokeColor=default;endArrow=none;endFill=0;" edge="1" parent="1" source="5PubQIWTH5NYxzCgbzbN-13" target="5PubQIWTH5NYxzCgbzbN-3">
          <mxGeometry relative="1" as="geometry" />
        </mxCell>
        <mxCell id="5PubQIWTH5NYxzCgbzbN-13" value="거래방식" style="ellipse;whiteSpace=wrap;html=1;rounded=0;" vertex="1" parent="1">
          <mxGeometry x="580" y="430" width="110" height="80" as="geometry" />
        </mxCell>
        <mxCell id="5PubQIWTH5NYxzCgbzbN-17" style="edgeStyle=orthogonalEdgeStyle;rounded=0;orthogonalLoop=1;jettySize=auto;html=1;entryX=0.75;entryY=1;entryDx=0;entryDy=0;strokeColor=default;endArrow=none;endFill=0;" edge="1" parent="1" source="5PubQIWTH5NYxzCgbzbN-14" target="5PubQIWTH5NYxzCgbzbN-3">
          <mxGeometry relative="1" as="geometry" />
        </mxCell>
        <mxCell id="5PubQIWTH5NYxzCgbzbN-14" value="가격" style="ellipse;whiteSpace=wrap;html=1;rounded=0;" vertex="1" parent="1">
          <mxGeometry x="700" y="380" width="110" height="80" as="geometry" />
        </mxCell>
        <mxCell id="5PubQIWTH5NYxzCgbzbN-19" style="edgeStyle=orthogonalEdgeStyle;rounded=0;orthogonalLoop=1;jettySize=auto;html=1;entryX=0;entryY=0.5;entryDx=0;entryDy=0;strokeColor=default;endArrow=ERoneToMany;endFill=0;" edge="1" parent="1" source="5PubQIWTH5NYxzCgbzbN-18" target="5PubQIWTH5NYxzCgbzbN-1">
          <mxGeometry relative="1" as="geometry" />
        </mxCell>
        <mxCell id="5PubQIWTH5NYxzCgbzbN-18" value="작성" style="rhombus;whiteSpace=wrap;html=1;" vertex="1" parent="1">
          <mxGeometry x="180" y="120" width="80" height="80" as="geometry" />
        </mxCell>
        <mxCell id="5PubQIWTH5NYxzCgbzbN-22" style="edgeStyle=orthogonalEdgeStyle;rounded=0;orthogonalLoop=1;jettySize=auto;html=1;entryX=1;entryY=0.5;entryDx=0;entryDy=0;strokeColor=default;endArrow=ERone;endFill=0;" edge="1" parent="1" source="5PubQIWTH5NYxzCgbzbN-21" target="5PubQIWTH5NYxzCgbzbN-2">
          <mxGeometry relative="1" as="geometry" />
        </mxCell>
        <mxCell id="5PubQIWTH5NYxzCgbzbN-23" style="edgeStyle=orthogonalEdgeStyle;rounded=0;orthogonalLoop=1;jettySize=auto;html=1;entryX=0;entryY=0.5;entryDx=0;entryDy=0;strokeColor=default;endArrow=ERzeroToMany;endFill=0;" edge="1" parent="1" source="5PubQIWTH5NYxzCgbzbN-21" target="5PubQIWTH5NYxzCgbzbN-3">
          <mxGeometry relative="1" as="geometry" />
        </mxCell>
        <mxCell id="5PubQIWTH5NYxzCgbzbN-21" value="생성" style="rhombus;whiteSpace=wrap;html=1;" vertex="1" parent="1">
          <mxGeometry x="385" y="310" width="80" height="80" as="geometry" />
        </mxCell>
      </root>
    </mxGraphModel>
  </diagram>
</mxfile>
